<?xml version="1.0" encoding="utf-8"?>
<!-- Generator: Adobe Illustrator 16.0.0, SVG Export Plug-In . SVG Version: 6.00 Build 0)  -->
<!DOCTYPE svg PUBLIC "-//W3C//DTD SVG 1.0//EN" "http://www.w3.org/TR/2001/REC-SVG-20010904/DTD/svg10.dtd">
<svg version="1.0" id="Layer_1" xmlns="http://www.w3.org/2000/svg" xmlns:xlink="http://www.w3.org/1999/xlink" x="0px" y="0px"
	 width="800px" height="800px" viewBox="0 0 800 800" enable-background="new 0 0 800 800" xml:space="preserve">
<g>
	<path fill="#231F20" d="M75.952,555.547c13.536,0,22.908,5.373,22.908,16.896c0,8.492-4.271,13.67-12.493,16.115
		c9.787,2.639,14.884,8.105,14.884,15.621c0,14.355-10.203,20.217-27.066,20.217H41.077v-8.301l7.807-2.93V567.26l-7.807-2.93
		v-8.297l23.944-0.486H75.952z M71.061,583.672c7.598,0,11.659-3.031,11.659-9.078c0-5.082-3.847-7.334-8.845-7.334h-8.854v16.412
		H71.061z M73.661,612.676c7.291,0,11.142-3.121,11.142-8.496c0-7.125-4.37-10.254-13.742-10.254h-6.039v18.75H73.661z"/>
	<path fill="#231F20" d="M162.846,597.055c0,17.566-10.929,28.318-27.794,28.318c-16.974,0-26.552-8.303-26.552-26.855
		c0-17.576,11.143-27.83,28.115-27.83C153.481,570.688,162.846,580.248,162.846,597.055 M124.635,598.021
		c0,10.75,3.335,15.631,10.934,15.631c7.495,0,11.143-4.402,11.143-16.119c0-9.965-3.121-15.131-10.619-15.131
		C128.489,582.402,124.635,586.307,124.635,598.021"/>
	<path fill="#231F20" d="M166.979,572.146l23.952-0.484v33.693c0,5.369,1.665,7.811,6.347,7.811c6.769,0,11.766-5.277,11.766-5.277
		v-25.486l-8.329-2.441v-7.814l23.946-0.484v42.48l8.328,1.953v7.621l-21.968,0.68l-1.036-6.838c0,0-8.335,7.814-18.221,7.814
		c-10.418,0-16.451-6.551-16.451-17.484v-25.486l-8.334-2.441V572.146z"/>
	<path fill="#231F20" d="M260.429,578.393c0,0,7.499-7.713,14.475-7.713c5.729,0,9.686,1.764,9.686,1.764l-0.836,18.744h-9.368
		l-1.56-8.299c-6.043,0-11.251,5.465-11.251,5.465v25.789l10.407,2.436v7.818h-34.351v-7.818l8.328-2.436v-31.74l-8.328-2.441
		v-7.814l21.87-0.484L260.429,578.393z"/>
	<path fill="#231F20" d="M310.488,578.393c0,0,9.893-7.52,19.155-7.52c10.105,0,15.831,6.738,15.831,17.391v25.879l7.281,2.436
		v7.818h-28.628v-7.818l5.729-2.436v-23.246c0-4.494-2.705-7.813-7.079-7.813c-6.462,0-11.145,5.568-11.145,5.568v25.49l5.729,2.436
		v7.818H287.69v-7.818l8.328-2.436v-31.74l-8.328-2.441v-7.814l22.072-0.484L310.488,578.393z"/>
	<path fill="#231F20" d="M374.169,601.248c0.625,7.818,5.415,12.404,12.603,12.404c8.631,0,17.484-4.586,17.484-4.586l4.473,8.098
		c0,0-10.405,8.209-23.731,8.209c-17.907,0-27.066-9.771-27.066-26.371c0-17.09,10.306-28.314,27.792-28.314
		c15.516,0,23.636,8.973,23.636,22.945c0,3.713-0.63,7.32-0.63,7.615H374.169z M393.221,592.168c0-5.568-2.494-9.766-8.533-9.766
		c-5.83,0-9.477,4-10.31,9.766H393.221z"/>
	<path fill="#231F20" d="M512.71,624.396h-28.215v-7.818l5.512-2.436v-23.246c0-5.367-1.662-8.008-6.031-8.008
		c-6.771,0-11.559,5.074-11.559,5.074v26.18l5.412,2.436v7.818h-26.442v-7.818l5.417-2.436v-23.246c0-5.367-1.463-8.008-5.94-8.008
		c-6.761,0-11.654,5.074-11.654,5.074v26.18l5.518,2.436v7.818h-29.154v-7.818l8.024-2.436v-31.74l-7.915-2.441v-7.814l21.758-0.484
		l0.727,6.934c0,0,9.057-7.916,18.224-7.916c7.385,0,11.963,3.225,14.364,8.406c1.768-1.662,9.576-8.406,18.838-8.406
		c10.935,0,16.033,6.643,16.033,17.58v25.883l7.085,2.436V624.396z"/>
	<path fill="#231F20" d="M572.209,597.055c0,17.566-10.934,28.318-27.795,28.318c-16.971,0-26.547-8.303-26.547-26.855
		c0-17.576,11.139-27.83,28.109-27.83C562.843,570.688,572.209,580.248,572.209,597.055 M533.999,598.021
		c0,10.75,3.33,15.631,10.935,15.631c7.494,0,11.139-4.402,11.139-16.119c0-9.965-3.12-15.131-10.62-15.131
		C537.854,582.402,533.999,586.307,533.999,598.021"/>
	<path fill="#231F20" d="M576.334,572.146l23.95-0.484v33.693c0,5.369,1.668,7.811,6.351,7.811c6.766,0,11.764-5.277,11.764-5.277
		v-25.486l-8.328-2.441v-7.814l23.945-0.484v42.48l8.334,1.953v7.621l-21.974,0.68l-1.034-6.838c0,0-8.333,7.814-18.219,7.814
		c-10.425,0-16.456-6.551-16.456-17.484v-25.486l-8.333-2.441V572.146z"/>
	<path fill="#231F20" d="M687.695,619.313c-5.099,3.521-10.925,6.061-17.69,6.061c-11.973,0-15.408-7.818-15.408-19.051v-22.461
		h-9.687v-9.469l9.687-1.268v-13.477l15.613-2.631v16.107h14.583v10.736H670.21v21.494c0,6.246,1.144,8.781,5.521,8.781
		c2.806,0,6.865-1.568,8.223-2.246L687.695,619.313z"/>
	<path fill="#231F20" d="M713.703,577.322c3.024-2.334,9.78-6.643,17.484-6.643c10.619,0,16.352,6.643,16.352,17.58v25.883
		l7.289,2.436v7.818h-28.313v-7.818l5.401-2.34v-23.633c0-4.881-2.076-7.811-6.865-7.811c-5.826,0-11.348,5.168-11.348,5.168v26.18
		l5.521,2.436v7.818h-29.468v-7.818l8.333-2.436v-54.881l-8.333-1.961v-7.805l23.946-0.783V577.322z"/>
	<path fill="#231F20" d="M64.917,702.363c0,11.238,3.434,15.631,13.638,15.631c11.04,0,13.431-5.566,13.431-17.092v-29.291
		l-8.119-2.928v-8.309l32.063-0.484v8.793l-7.804,2.928v29.291c0,18.855-7.709,29-30.085,29c-20.927,0-29.262-8.682-29.262-27.539
		v-30.752l-7.698-2.928v-8.309l31.959-0.484v8.793l-8.122,2.928V702.363z"/>
	<path fill="#231F20" d="M144.925,682.734c0,0,9.895-7.514,19.158-7.514c10.104,0,15.829,6.744,15.829,17.383v25.885l7.282,2.434
		v7.813h-28.625v-7.813l5.729-2.434v-23.246c0-4.498-2.71-7.814-7.082-7.814c-6.459,0-11.143,5.568-11.143,5.568v25.492l5.729,2.434
		v7.813H122.13v-7.813l8.328-2.434v-31.742l-8.328-2.441v-7.814l22.07-0.488L144.925,682.734z"/>
	<path fill="#231F20" d="M223.601,720.922v7.813h-31.228v-7.813l8.328-2.434v-31.742l-8.328-2.441v-7.814l23.944-0.488v42.486
		L223.601,720.922z M207.781,651.1c5.416,0,8.739,2.639,8.739,8.791c0,5.758-4.473,8.887-8.739,8.887
		c-5.618,0-8.953-3.129-8.953-8.887C198.828,654.334,203.102,651.1,207.781,651.1"/>
	<polygon fill="#231F20" points="260.23,676.49 287.516,676.002 287.516,684.305 281.57,685.582 264.813,728.734 247.64,728.734 
		231.19,685.867 226.192,684.305 226.192,676.49 253.461,676.002 253.461,684.305 247.64,685.281 257.109,714.086 266.276,685.582 
		260.23,684.305 	"/>
	<path fill="#231F20" d="M304.766,705.592c0.622,7.813,5.413,12.402,12.598,12.402c8.633,0,17.493-4.59,17.493-4.59l4.47,8.105
		c0,0-10.409,8.205-23.735,8.205c-17.907,0-27.067-9.77-27.067-26.371c0-17.08,10.311-28.32,27.793-28.32
		c15.519,0,23.636,8.98,23.636,22.951c0,3.707-0.626,7.316-0.626,7.617H304.766z M323.814,696.51c0-5.568-2.498-9.764-8.529-9.764
		c-5.833,0-9.479,3.998-10.309,9.764H323.814z"/>
	<path fill="#231F20" d="M368.966,682.734c0,0,7.501-7.711,14.473-7.711c5.729,0,9.686,1.764,9.686,1.764l-0.832,18.742h-9.37
		l-1.563-8.289c-6.043,0-11.247,5.453-11.247,5.453v25.795l10.411,2.434v7.813h-34.357v-7.813l8.331-2.434v-31.742l-8.331-2.441
		v-7.814l21.87-0.488L368.966,682.734z"/>
	<path fill="#231F20" d="M406.726,717.994c0,0,3.648,0.971,8.747,0.971c5.728,0,8.536-1.662,8.536-4.785
		c0-8.002-27.795-5.074-27.795-22.453c0-12.207,10.404-16.703,21.446-16.703c9.361,0,19.367,2.938,19.367,2.938l-0.419,14.643
		h-8.845l-1.573-5.857c0,0-3.019-0.98-7.182-0.98c-4.473,0-7.177,1.764-7.177,4.979c0,7.92,27.792,4.498,27.792,21.391
		c0,11.23-9.679,17.58-23.942,17.58c-9.896,0-19.157-2.154-19.157-2.154v-15.918h9.369L406.726,717.994z"/>
	<path fill="#231F20" d="M477.086,720.922v7.813h-31.235v-7.813l8.327-2.434v-31.742l-8.327-2.441v-7.814l23.94-0.488v42.486
		L477.086,720.922z M461.258,651.1c5.412,0,8.743,2.639,8.743,8.791c0,5.758-4.475,8.887-8.743,8.887
		c-5.617,0-8.962-3.129-8.962-8.887C452.296,654.334,456.574,651.1,461.258,651.1"/>
	<path fill="#231F20" d="M523.489,723.656c-5.094,3.523-10.925,6.059-17.7,6.059c-11.963,0-15.393-7.813-15.393-19.049v-22.457
		H480.7v-9.475l9.696-1.266v-13.484l15.612-2.625v16.109h14.569v10.74h-14.569v21.484c0,6.248,1.144,8.785,5.513,8.785
		c2.811,0,6.874-1.566,8.228-2.246L523.489,723.656z"/>
	<path fill="#231F20" d="M523.993,676.49l27.801-0.488v8.303l-5.827,0.977l9.262,27.344l8.853-27.043l-6.041-1.277v-7.814
		l28.01-0.488v8.303l-6.456,1.277l-15.303,40.02c-5.003,12.91-11.764,26.568-28.324,26.568c-3.54,0-10.096-0.775-10.096-0.775
		l1.452-10.453h6.771c8.334,0,12.178-8.299,13.96-12.104l-18.538-42.971l-5.522-1.563V676.49z"/>
	<g>
		<defs>
			<path id="SVGID_1_" d="M682.427,47.835V343.82c0,56.587-39.373,93.143-100.311,93.143c-60.938,0-100.308-36.556-100.308-93.143
				V112.062h8.397V343.82c0,51.803,36.073,85.262,91.91,85.262c55.835,0,91.902-33.459,91.902-85.262V112.062h-34.11V343.82
				c0,32.732-18.794,53.259-57.792,53.259c-39,0-57.783-20.526-57.783-53.259V79.821h-76.485v255.023
				c0,81.49,50.198,130.125,134.269,130.125c84.079,0,134.272-48.635,134.272-130.125V80.063h8.413v254.782
				c0,86.421-53.34,138.011-142.686,138.011c-89.338,0-142.678-51.59-142.678-138.011V47.835h-34.109v287.009
				c0,102.65,66.679,170.025,176.787,170.025c110.132,0,176.807-67.375,176.807-170.025V47.835H682.427z"/>
		</defs>
		<clipPath id="SVGID_2_">
			<use xlink:href="#SVGID_1_"  overflow="visible"/>
		</clipPath>
		<rect x="381.332" y="39.738" clip-path="url(#SVGID_2_)" fill="#EE7128" width="170.271" height="10.558"/>
		<rect x="381.322" y="44.817" clip-path="url(#SVGID_2_)" fill="#EE7129" width="170.271" height="10.563"/>
		<rect x="381.322" y="49.894" clip-path="url(#SVGID_2_)" fill="#EE712A" width="170.271" height="10.563"/>
		<rect x="381.322" y="54.972" clip-path="url(#SVGID_2_)" fill="#EE702B" width="170.281" height="10.563"/>
		<rect x="381.322" y="60.051" clip-path="url(#SVGID_2_)" fill="#EE702C" width="170.271" height="10.563"/>
		<rect x="381.322" y="65.13" clip-path="url(#SVGID_2_)" fill="#ED702C" width="170.271" height="10.561"/>
		<rect x="381.332" y="70.202" clip-path="url(#SVGID_2_)" fill="#ED6F2D" width="170.271" height="10.561"/>
		<rect x="381.322" y="75.279" clip-path="url(#SVGID_2_)" fill="#ED6F2E" width="170.271" height="10.563"/>
		<rect x="381.322" y="80.355" clip-path="url(#SVGID_2_)" fill="#ED6E2F" width="170.271" height="10.563"/>
		<rect x="381.322" y="85.427" clip-path="url(#SVGID_2_)" fill="#ED6E2F" width="170.271" height="10.558"/>
		<rect x="381.322" y="90.506" clip-path="url(#SVGID_2_)" fill="#ED6E30" width="170.271" height="10.563"/>
		<rect x="381.322" y="95.587" clip-path="url(#SVGID_2_)" fill="#ED6D31" width="170.271" height="10.555"/>
		<rect x="381.322" y="100.659" clip-path="url(#SVGID_2_)" fill="#ED6D32" width="170.271" height="10.561"/>
		<rect x="381.322" y="105.735" clip-path="url(#SVGID_2_)" fill="#ED6C32" width="170.271" height="10.556"/>
		<rect x="381.322" y="110.814" clip-path="url(#SVGID_2_)" fill="#ED6C33" width="170.271" height="10.561"/>
		<rect x="381.322" y="115.891" clip-path="url(#SVGID_2_)" fill="#ED6C34" width="170.271" height="10.556"/>
		<rect x="381.322" y="120.963" clip-path="url(#SVGID_2_)" fill="#ED6B35" width="170.271" height="10.564"/>
		<rect x="381.322" y="126.041" clip-path="url(#SVGID_2_)" fill="#ED6B35" width="170.271" height="10.559"/>
		<rect x="381.322" y="131.12" clip-path="url(#SVGID_2_)" fill="#ED6A36" width="170.271" height="10.557"/>
		<rect x="381.322" y="136.197" clip-path="url(#SVGID_2_)" fill="#ED6A37" width="170.271" height="10.563"/>
		<rect x="381.322" y="141.275" clip-path="url(#SVGID_2_)" fill="#ED6A37" width="170.271" height="10.557"/>
		<rect x="381.322" y="146.348" clip-path="url(#SVGID_2_)" fill="#ED6938" width="170.271" height="10.561"/>
		<rect x="381.322" y="151.425" clip-path="url(#SVGID_2_)" fill="#ED6939" width="170.271" height="10.56"/>
		<rect x="381.322" y="156.503" clip-path="url(#SVGID_2_)" fill="#ED6939" width="170.271" height="10.563"/>
		<rect x="381.322" y="161.575" clip-path="url(#SVGID_2_)" fill="#EC683A" width="170.271" height="10.565"/>
		<rect x="381.322" y="166.654" clip-path="url(#SVGID_2_)" fill="#EC683B" width="170.271" height="10.563"/>
		<rect x="381.322" y="171.73" clip-path="url(#SVGID_2_)" fill="#EC673B" width="170.271" height="10.563"/>
		<rect x="381.322" y="176.802" clip-path="url(#SVGID_2_)" fill="#EC673C" width="170.271" height="10.563"/>
		<rect x="381.322" y="181.881" clip-path="url(#SVGID_2_)" fill="#EC673D" width="170.271" height="10.563"/>
		<rect x="381.322" y="186.962" clip-path="url(#SVGID_2_)" fill="#EC663D" width="170.271" height="10.561"/>
		<rect x="381.322" y="192.039" clip-path="url(#SVGID_2_)" fill="#EC663E" width="170.271" height="10.561"/>
		<rect x="381.322" y="197.116" clip-path="url(#SVGID_2_)" fill="#EC653E" width="170.271" height="10.558"/>
		<rect x="381.322" y="202.187" clip-path="url(#SVGID_2_)" fill="#EC653F" width="170.271" height="10.563"/>
		<rect x="381.322" y="207.264" clip-path="url(#SVGID_2_)" fill="#EC6540" width="170.271" height="10.565"/>
		<rect x="381.322" y="212.342" clip-path="url(#SVGID_2_)" fill="#EC6440" width="170.271" height="10.563"/>
		<rect x="381.322" y="217.424" clip-path="url(#SVGID_2_)" fill="#EC6441" width="170.271" height="10.56"/>
		<rect x="381.322" y="222.496" clip-path="url(#SVGID_2_)" fill="#EC6442" width="170.271" height="10.561"/>
		<rect x="381.322" y="227.572" clip-path="url(#SVGID_2_)" fill="#EC6342" width="170.271" height="10.556"/>
		<rect x="381.322" y="232.651" clip-path="url(#SVGID_2_)" fill="#EC6343" width="170.271" height="10.561"/>
		<rect x="381.322" y="237.728" clip-path="url(#SVGID_2_)" fill="#EC6243" width="170.271" height="10.556"/>
		<rect x="381.322" y="242.8" clip-path="url(#SVGID_2_)" fill="#EC6244" width="170.271" height="10.569"/>
		<rect x="381.322" y="247.881" clip-path="url(#SVGID_2_)" fill="#EC6244" width="170.271" height="10.561"/>
		<rect x="381.322" y="252.952" clip-path="url(#SVGID_2_)" fill="#EC6145" width="170.271" height="10.561"/>
		<rect x="381.322" y="258.029" clip-path="url(#SVGID_2_)" fill="#EC6146" width="170.271" height="10.563"/>
		<rect x="381.322" y="263.108" clip-path="url(#SVGID_2_)" fill="#EC6146" width="170.271" height="10.561"/>
		<rect x="381.322" y="268.185" clip-path="url(#SVGID_2_)" fill="#EC6047" width="170.271" height="10.561"/>
		<rect x="381.322" y="273.261" clip-path="url(#SVGID_2_)" fill="#EC6047" width="170.271" height="10.563"/>
		<rect x="381.322" y="278.335" clip-path="url(#SVGID_2_)" fill="#EC5F48" width="170.271" height="10.563"/>
		<rect x="381.322" y="283.419" clip-path="url(#SVGID_2_)" fill="#EC5F48" width="170.271" height="10.563"/>
		<rect x="381.322" y="288.491" clip-path="url(#SVGID_2_)" fill="#EB5F49" width="170.271" height="10.563"/>
		<rect x="381.322" y="293.567" clip-path="url(#SVGID_2_)" fill="#EB5E49" width="170.271" height="10.565"/>
		<rect x="381.322" y="298.644" clip-path="url(#SVGID_2_)" fill="#EB5E4A" width="170.271" height="10.565"/>
		<rect x="381.322" y="303.725" clip-path="url(#SVGID_2_)" fill="#EB5D4A" width="170.271" height="10.561"/>
		<rect x="381.322" y="308.799" clip-path="url(#SVGID_2_)" fill="#EB5D4B" width="170.271" height="10.563"/>
		<rect x="381.322" y="313.871" clip-path="url(#SVGID_2_)" fill="#EB5C4B" width="170.271" height="10.562"/>
		<rect x="381.322" y="318.948" clip-path="url(#SVGID_2_)" fill="#EB5C4C" width="170.271" height="10.561"/>
		<rect x="381.322" y="324.024" clip-path="url(#SVGID_2_)" fill="#EB5C4C" width="170.271" height="10.565"/>
		<rect x="381.322" y="329.103" clip-path="url(#SVGID_2_)" fill="#EB5B4D" width="170.271" height="10.563"/>
		<path clip-path="url(#SVGID_2_)" fill="#EB5B4D" d="M381.374,345.81c-0.101-5.655-0.028-7.636-0.052-11.631h170.271
			c0.021,3.042-0.035,8.109,0.035,9.491L381.374,345.81z"/>
		<path clip-path="url(#SVGID_2_)" fill="#EB5A4E" d="M381.628,353.776c-0.274-5.367-0.327-11.867-0.306-14.52h170.271
			c-0.02,4.385,0.056,4.931,0.1,6.596L381.628,353.776z"/>
		<path clip-path="url(#SVGID_2_)" fill="#EB5A4E" d="M382.2,361.84c-0.469-5.599-0.804-11.192-0.841-16.669l170.26-1.675
			c0,1.562,0.13,3.004,0.204,4.428L382.2,361.84z"/>
		<path clip-path="url(#SVGID_2_)" fill="#EB594F" d="M383.146,369.997c-0.765-5.683-1.264-11.303-1.56-16.874l170.087-7.434
			c0.095,1.468,0.209,2.861,0.389,4.168L383.146,369.997z"/>
		<path clip-path="url(#SVGID_2_)" fill="#EB594F" d="M384.449,378.223c-1.043-5.73-1.754-11.399-2.302-17.04l169.671-13.422
			c0.16,1.365,0.3,2.7,0.529,3.911L384.449,378.223z"/>
		<path clip-path="url(#SVGID_2_)" fill="#EB584F" d="M386.132,386.502c-1.324-5.761-2.302-11.477-3.068-17.164l168.979-19.636
			c0.195,1.297,0.385,2.547,0.654,3.665L386.132,386.502z"/>
		<path clip-path="url(#SVGID_2_)" fill="#EB5850" d="M388.218,394.819c-1.621-5.781-2.87-11.541-3.885-17.259l167.995-26.027
			c0.22,1.216,0.454,2.373,0.759,3.398L388.218,394.819z"/>
		<path clip-path="url(#SVGID_2_)" fill="#EB5750" d="M390.719,403.146c-1.924-5.782-3.471-11.566-4.73-17.309l166.685-32.604
			c0.239,1.145,0.514,2.206,0.854,3.14L390.719,403.146z"/>
		<path clip-path="url(#SVGID_2_)" fill="#EB5751" d="M393.66,411.459c-2.219-5.752-4.097-11.554-5.621-17.319l165.018-39.331
			c0.265,1.074,0.59,2.025,0.934,2.884L393.66,411.459z"/>
		<path clip-path="url(#SVGID_2_)" fill="#EB5651" d="M397.048,419.734c-2.527-5.709-4.709-11.488-6.546-17.26l162.984-46.214
			c0.294,0.981,0.634,1.845,0.993,2.627L397.048,419.734z"/>
		<path clip-path="url(#SVGID_2_)" fill="#EB5652" d="M400.9,427.939c-2.846-5.65-5.344-11.391-7.502-17.148l160.557-53.2
			c0.311,0.89,0.664,1.681,1.034,2.388L400.9,427.939z"/>
		<path clip-path="url(#SVGID_2_)" fill="#EA5652" d="M405.22,436.031c-3.167-5.561-5.988-11.24-8.462-16.963l157.682-60.267
			c0.335,0.803,0.694,1.52,1.064,2.161L405.22,436.031z"/>
		<path clip-path="url(#SVGID_2_)" fill="#EA5552" d="M410.009,443.979c-3.492-5.453-6.631-11.041-9.441-16.705l154.377-67.372
			c0.359,0.723,0.714,1.372,1.104,1.946L410.009,443.979z"/>
		<path clip-path="url(#SVGID_2_)" fill="#EA5553" d="M415.27,451.75c-3.815-5.309-7.28-10.793-10.423-16.365l150.611-74.492
			c0.38,0.648,0.739,1.231,1.134,1.76L415.27,451.75z"/>
		<path clip-path="url(#SVGID_2_)" fill="#EA5453" d="M420.985,459.287c-4.126-5.133-7.915-10.473-11.38-15.928l146.387-81.571
			c0.385,0.582,0.754,1.115,1.139,1.598L420.985,459.287z"/>
		<path clip-path="url(#SVGID_2_)" fill="#EA5454" d="M427.142,466.572c-4.426-4.943-8.528-10.117-12.32-15.438l141.721-88.536
			c0.38,0.522,0.754,1.009,1.163,1.459L427.142,466.572z"/>
		<path clip-path="url(#SVGID_2_)" fill="#EA5354" d="M433.718,473.555c-4.704-4.725-9.11-9.711-13.217-14.857l136.585-95.363
			c0.399,0.475,0.784,0.937,1.214,1.346L433.718,473.555z"/>
		<path clip-path="url(#SVGID_2_)" fill="#EA5354" d="M440.68,480.207c-4.965-4.486-9.65-9.25-14.058-14.205l131.033-101.993
			l1.259,1.267L440.68,480.207z"/>
		<path clip-path="url(#SVGID_2_)" fill="#EA5255" d="M448.002,486.492c-5.197-4.223-10.143-8.74-14.836-13.482l125.078-108.373
			c0.425,0.412,0.85,0.821,1.328,1.203L448.002,486.492z"/>
		<path clip-path="url(#SVGID_2_)" fill="#EA5255" d="M455.651,492.389c-5.407-3.943-10.6-8.201-15.548-12.697l118.755-114.456
			c0.449,0.384,0.914,0.782,1.428,1.152L455.651,492.389z"/>
		<path clip-path="url(#SVGID_2_)" fill="#EA5156" d="M463.584,497.877c-5.592-3.654-10.988-7.637-16.187-11.877l112.12-120.202
			c0.475,0.382,0.979,0.758,1.543,1.128L463.584,497.877z"/>
		<path clip-path="url(#SVGID_2_)" fill="#EA5156" d="M471.763,502.943c-5.747-3.365-11.334-7.045-16.736-11.012L560.222,366.35
			c0.519,0.368,1.063,0.743,1.692,1.106L471.763,502.943z"/>
		<path clip-path="url(#SVGID_2_)" fill="#EA5056" d="M480.141,507.58c-5.871-3.063-11.618-6.449-17.211-10.125l98.061-130.566
			c0.569,0.358,1.184,0.733,1.878,1.094L480.141,507.58z"/>
		<path clip-path="url(#SVGID_2_)" fill="#EA5057" d="M488.669,511.773c-5.962-2.768-11.838-5.844-17.575-9.217l90.74-135.131
			c0.635,0.352,1.318,0.717,2.082,1.075L488.669,511.773z"/>
		<path clip-path="url(#SVGID_2_)" fill="#EA4F57" d="M497.331,515.531c-6.046-2.469-12.018-5.242-17.884-8.305l83.335-139.279
			c0.694,0.344,1.459,0.708,2.298,1.061L497.331,515.531z"/>
		<path clip-path="url(#SVGID_2_)" fill="#EA4F58" d="M506.069,518.867c-6.087-2.188-12.133-4.648-18.095-7.412l75.842-142.988
			c0.778,0.342,1.628,0.684,2.547,1.033L506.069,518.867z"/>
		<path clip-path="url(#SVGID_2_)" fill="#EA4E58" d="M514.861,521.781c-6.116-1.914-12.197-4.064-18.233-6.523l68.347-146.285
			c0.864,0.333,1.797,0.662,2.796,1.004L514.861,521.781z"/>
		<path clip-path="url(#SVGID_2_)" fill="#EA4E58" d="M523.674,524.268c-6.121-1.607-12.232-3.498-18.309-5.645l60.878-149.154
			c0.963,0.307,1.981,0.635,3.085,0.941L523.674,524.268z"/>
		<path clip-path="url(#SVGID_2_)" fill="#EA4D59" d="M532.477,526.371c-6.102-1.328-12.229-2.953-18.329-4.814l53.514-151.624
			c1.048,0.292,2.136,0.606,3.35,0.871L532.477,526.371z"/>
		<path clip-path="url(#SVGID_2_)" fill="#EA4D59" d="M541.248,528.092c-6.071-1.064-12.182-2.42-18.283-4.008l46.234-153.713
			c1.133,0.279,2.326,0.557,3.639,0.782L541.248,528.092z"/>
		<path clip-path="url(#SVGID_2_)" fill="#EA4D5A" d="M549.966,529.463c-6.011-0.811-12.107-1.916-18.199-3.256l39.114-155.438
			c1.219,0.253,2.497,0.518,3.915,0.686L549.966,529.463z"/>
		<path clip-path="url(#SVGID_2_)" fill="#E94C5A" d="M558.624,530.49c-5.951-0.563-12.018-1.439-18.084-2.529l32.153-156.838
			c1.299,0.232,2.671,0.466,4.185,0.576L558.624,530.49z"/>
		<path clip-path="url(#SVGID_2_)" fill="#E94B5A" d="M567.191,531.207c-5.916-0.381-11.883-0.957-17.93-1.846l25.37-157.927
			c1.362,0.225,2.88,0.354,4.452,0.454L567.191,531.207z"/>
		<path clip-path="url(#SVGID_2_)" fill="#E94B5B" d="M575.68,531.631c-5.856-0.217-11.753-0.553-17.755-1.211l18.778-158.736
			c1.459,0.185,3.07,0.249,4.703,0.319L575.68,531.631z"/>
		<path clip-path="url(#SVGID_2_)" fill="#E94A5B" d="M584.073,531.775c-5.813-0.049-11.629-0.188-17.565-0.611l12.392-159.285
			c1.543,0.129,3.251,0.136,4.938,0.181L584.073,531.775z"/>
		<path clip-path="url(#SVGID_2_)" fill="#E94A5B" d="M592.471,531.609c-5.827,0.193-11.648,0.193-17.47,0l6.216-159.606
			c1.683,0.057,3.364,0.057,5.048,0L592.471,531.609z"/>
		<path clip-path="url(#SVGID_2_)" fill="#E9495C" d="M600.969,531.164c-5.947,0.432-11.758,0.57-17.58,0.611l0.255-159.719
			c1.683-0.049,3.385-0.049,4.938-0.178L600.969,531.164z"/>
		<path clip-path="url(#SVGID_2_)" fill="#E9495C" d="M609.551,530.422c-6.001,0.662-11.903,0.998-17.76,1.201L586.07,372.01
			c1.638-0.08,3.245-0.138,4.698-0.326L609.551,530.422z"/>
		<path clip-path="url(#SVGID_2_)" fill="#E9485C" d="M618.204,529.361c-6.046,0.895-12.023,1.465-17.93,1.846L588.387,371.89
			c1.577-0.103,3.091-0.229,4.453-0.454L618.204,529.361z"/>
		<path clip-path="url(#SVGID_2_)" fill="#E9485C" d="M626.937,527.961c-6.071,1.09-12.123,1.967-18.084,2.529l-18.259-158.787
			c1.512-0.115,2.891-0.349,4.184-0.581L626.937,527.961z"/>
		<path clip-path="url(#SVGID_2_)" fill="#E9475D" d="M635.709,526.207c-6.102,1.34-12.183,2.445-18.204,3.256L592.676,371.46
			c1.417-0.173,2.695-0.441,3.909-0.691L635.709,526.207z"/>
		<path clip-path="url(#SVGID_2_)" fill="#E9475D" d="M644.517,524.076c-6.111,1.596-12.223,2.951-18.29,4.016l-31.6-156.937
			c1.324-0.223,2.512-0.505,3.635-0.787L644.517,524.076z"/>
		<path clip-path="url(#SVGID_2_)" fill="#E9465D" d="M653.324,521.557c-6.107,1.861-12.224,3.486-18.325,4.814l-38.55-155.565
			c1.208-0.267,2.317-0.573,3.355-0.871L653.324,521.557z"/>
		<path clip-path="url(#SVGID_2_)" fill="#E9465E" d="M662.111,518.621c-6.076,2.15-12.188,4.039-18.305,5.646l-45.664-153.854
			c1.108-0.307,2.122-0.637,3.075-0.939L662.111,518.621z"/>
		<path clip-path="url(#SVGID_2_)" fill="#E9455E" d="M670.859,515.246c-6.043,2.467-12.124,4.621-18.244,6.535l-52.921-151.804
			c1.004-0.339,1.938-0.672,2.802-1.004L670.859,515.246z"/>
		<path clip-path="url(#SVGID_2_)" fill="#E9455E" d="M679.506,511.455c-5.967,2.764-12.013,5.225-18.1,7.412l-60.299-149.36
			c0.915-0.349,1.764-0.7,2.537-1.044L679.506,511.455z"/>
		<path clip-path="url(#SVGID_2_)" fill="#E9445F" d="M688.028,507.217c-5.866,3.072-11.838,5.84-17.884,8.311l-67.759-146.519
			c0.839-0.354,1.604-0.712,2.307-1.061L688.028,507.217z"/>
		<path clip-path="url(#SVGID_2_)" fill="#E9435F" d="M696.388,502.551c-5.742,3.379-11.614,6.449-17.58,9.219L603.55,368.504
			c0.769-0.362,1.447-0.728,2.077-1.079L696.388,502.551z"/>
		<path clip-path="url(#SVGID_2_)" fill="#E9435F" d="M704.535,497.455c-5.576,3.67-11.318,7.055-17.195,10.117l-82.736-139.589
			c0.694-0.358,1.297-0.734,1.867-1.094L704.535,497.455z"/>
		<path clip-path="url(#SVGID_2_)" fill="#E9425F" d="M712.449,491.93c-5.402,3.957-10.989,7.648-16.736,11.01l-90.16-135.479
			c0.623-0.366,1.173-0.747,1.702-1.11L712.449,491.93z"/>
		<path clip-path="url(#SVGID_2_)" fill="#E94260" d="M720.073,486c-5.188,4.238-10.595,8.217-16.183,11.877L606.4,366.926
			c0.565-0.367,1.073-0.751,1.558-1.128L720.073,486z"/>
		<path clip-path="url(#SVGID_2_)" fill="#E94160" d="M727.367,479.68c-4.947,4.502-10.134,8.766-15.553,12.701L607.179,366.388
			c0.524-0.371,0.985-0.769,1.434-1.155L727.367,479.68z"/>
		<path clip-path="url(#SVGID_2_)" fill="#E94160" d="M734.298,473.01c-4.679,4.738-9.626,9.26-14.828,13.475L607.889,365.837
			c0.484-0.379,0.908-0.792,1.338-1.199L734.298,473.01z"/>
		<path clip-path="url(#SVGID_2_)" fill="#E94061" d="M740.849,466.002c-4.409,4.955-9.092,9.717-14.055,14.195L608.548,365.276
			l1.263-1.267L740.849,466.002z"/>
		<path clip-path="url(#SVGID_2_)" fill="#E93F61" d="M746.975,458.689c-4.108,5.154-8.513,10.135-13.215,14.855L609.176,364.681
			c0.42-0.417,0.801-0.871,1.204-1.351L746.975,458.689z"/>
		<path clip-path="url(#SVGID_2_)" fill="#E93F61" d="M752.646,451.127c-3.789,5.32-7.894,10.49-12.317,15.441L609.756,364.056
			c0.414-0.447,0.783-0.934,1.179-1.463L752.646,451.127z"/>
		<path clip-path="url(#SVGID_2_)" fill="#E83E61" d="M757.863,443.352c-3.469,5.455-7.248,10.791-11.378,15.936L610.33,363.381
			c0.399-0.478,0.769-1.019,1.144-1.6L757.863,443.352z"/>
		<path clip-path="url(#SVGID_2_)" fill="#E83E62" d="M762.622,435.383c-3.14,5.574-6.605,11.057-10.425,16.365l-141.313-89.097
			c0.38-0.527,0.755-1.112,1.124-1.761L762.622,435.383z"/>
		<path clip-path="url(#SVGID_2_)" fill="#E83D62" d="M766.901,427.281c-2.801,5.664-5.951,11.244-9.446,16.697l-146.027-82.131
			c0.38-0.579,0.74-1.229,1.1-1.953L766.901,427.281z"/>
		<path clip-path="url(#SVGID_2_)" fill="#E83D62" d="M770.716,419.068c-2.477,5.723-5.302,11.396-8.468,16.967l-150.29-75.075
			c0.379-0.646,0.734-1.356,1.073-2.164L770.716,419.068z"/>
		<path clip-path="url(#SVGID_2_)" fill="#E83C63" d="M774.066,410.791c-2.152,5.758-4.654,11.498-7.499,17.15l-154.08-67.967
			c0.359-0.705,0.713-1.497,1.032-2.391L774.066,410.791z"/>
		<path clip-path="url(#SVGID_2_)" fill="#E83C63" d="M776.973,402.471c-1.838,5.775-4.024,11.551-6.557,17.268l-157.425-60.851
			c0.354-0.784,0.704-1.648,0.993-2.634L776.973,402.471z"/>
		<path clip-path="url(#SVGID_2_)" fill="#E83B63" d="M779.429,394.147c-1.519,5.768-3.405,11.56-5.611,17.322L613.48,357.691
			c0.344-0.861,0.675-1.812,0.93-2.889L779.429,394.147z"/>
		<path clip-path="url(#SVGID_2_)" fill="#E83B63" d="M781.49,385.837c-1.268,5.743-2.815,11.525-4.738,17.303l-162.808-46.772
			c0.34-0.934,0.614-1.993,0.85-3.145L781.49,385.837z"/>
		<path clip-path="url(#SVGID_2_)" fill="#E83A64" d="M783.139,377.555c-1.014,5.723-2.267,11.481-3.886,17.26l-164.879-39.891
			c0.319-1.021,0.55-2.178,0.774-3.405L783.139,377.555z"/>
		<path clip-path="url(#SVGID_2_)" fill="#E83964" d="M784.411,369.332c-0.769,5.688-1.747,11.403-3.081,17.166L614.77,353.362
			c0.279-1.119,0.468-2.368,0.664-3.663L784.411,369.332z"/>
		<path clip-path="url(#SVGID_2_)" fill="#E83964" d="M785.33,361.18c-0.554,5.643-1.263,11.308-2.312,17.042l-167.896-26.551
			c0.23-1.213,0.375-2.545,0.534-3.917L785.33,361.18z"/>
		<path clip-path="url(#SVGID_2_)" fill="#E83864" d="M785.884,353.121c-0.289,5.57-0.793,11.193-1.562,16.876l-168.898-20.142
			c0.159-1.309,0.283-2.703,0.378-4.171L785.884,353.121z"/>
		<path clip-path="url(#SVGID_2_)" fill="#E83865" d="M786.113,345.164c-0.044,5.482-0.374,11.071-0.838,16.67l-169.623-13.909
			c0.075-1.424,0.195-2.866,0.195-4.432L786.113,345.164z"/>
		<path clip-path="url(#SVGID_2_)" fill="#E83765" d="M786.149,339.251c0.02,2.658-0.036,9.153-0.306,14.521l-170.063-7.922
			c0.042-1.663,0.11-2.212,0.101-6.598H786.149z"/>
		<path clip-path="url(#SVGID_2_)" fill="#E83765" d="M786.149,334.175c-0.026,3.997,0.054,5.978-0.045,11.635l-170.263-2.136
			c0.07-1.386,0.016-6.453,0.04-9.499H786.149z"/>
		<rect x="615.882" y="329.103" clip-path="url(#SVGID_2_)" fill="#E83665" width="170.268" height="10.563"/>
		<rect x="615.882" y="324.024" clip-path="url(#SVGID_2_)" fill="#E83666" width="170.268" height="10.565"/>
		<rect x="615.882" y="318.948" clip-path="url(#SVGID_2_)" fill="#E83566" width="170.268" height="10.561"/>
		<rect x="615.882" y="313.875" clip-path="url(#SVGID_2_)" fill="#E83466" width="170.268" height="10.563"/>
		<rect x="615.882" y="308.799" clip-path="url(#SVGID_2_)" fill="#E83467" width="170.268" height="10.563"/>
		<rect x="615.882" y="303.718" clip-path="url(#SVGID_2_)" fill="#E83367" width="170.268" height="10.563"/>
		<rect x="615.882" y="298.641" clip-path="url(#SVGID_2_)" fill="#E83267" width="170.268" height="10.567"/>
		<rect x="615.882" y="293.565" clip-path="url(#SVGID_2_)" fill="#E83267" width="170.268" height="10.561"/>
		<rect x="615.882" y="288.491" clip-path="url(#SVGID_2_)" fill="#E83168" width="170.268" height="10.563"/>
		<rect x="615.882" y="283.414" clip-path="url(#SVGID_2_)" fill="#E83068" width="170.268" height="10.561"/>
		<rect x="615.882" y="278.335" clip-path="url(#SVGID_2_)" fill="#E83068" width="170.268" height="10.563"/>
		<rect x="615.882" y="273.261" clip-path="url(#SVGID_2_)" fill="#E82F68" width="170.268" height="10.563"/>
		<rect x="615.882" y="268.185" clip-path="url(#SVGID_2_)" fill="#E82F69" width="170.268" height="10.561"/>
		<rect x="615.882" y="263.108" clip-path="url(#SVGID_2_)" fill="#E72E69" width="170.268" height="10.561"/>
		<rect x="615.882" y="258.034" clip-path="url(#SVGID_2_)" fill="#E72D69" width="170.268" height="10.563"/>
		<rect x="615.882" y="252.957" clip-path="url(#SVGID_2_)" fill="#E72C69" width="170.268" height="10.563"/>
		<rect x="615.882" y="247.881" clip-path="url(#SVGID_2_)" fill="#E72C6A" width="170.268" height="10.561"/>
		<rect x="615.882" y="242.8" clip-path="url(#SVGID_2_)" fill="#E72B6A" width="170.268" height="10.563"/>
		<rect x="615.882" y="237.723" clip-path="url(#SVGID_2_)" fill="#E72A6A" width="170.268" height="10.561"/>
		<rect x="615.882" y="232.646" clip-path="url(#SVGID_2_)" fill="#E72A6A" width="170.268" height="10.561"/>
		<rect x="615.882" y="227.572" clip-path="url(#SVGID_2_)" fill="#E7296A" width="170.268" height="10.563"/>
		<rect x="615.882" y="222.496" clip-path="url(#SVGID_2_)" fill="#E7286B" width="170.268" height="10.561"/>
		<rect x="615.882" y="217.415" clip-path="url(#SVGID_2_)" fill="#E7276B" width="170.268" height="10.565"/>
		<rect x="615.882" y="212.342" clip-path="url(#SVGID_2_)" fill="#E7276B" width="170.268" height="10.563"/>
		<rect x="615.882" y="207.264" clip-path="url(#SVGID_2_)" fill="#E7266B" width="170.268" height="10.565"/>
		<rect x="615.882" y="202.187" clip-path="url(#SVGID_2_)" fill="#E7256C" width="170.268" height="10.563"/>
		<rect x="615.882" y="197.116" clip-path="url(#SVGID_2_)" fill="#E7246C" width="170.268" height="10.563"/>
		<rect x="615.882" y="192.039" clip-path="url(#SVGID_2_)" fill="#E7236C" width="170.268" height="10.561"/>
		<rect x="615.882" y="186.962" clip-path="url(#SVGID_2_)" fill="#E7226C" width="170.268" height="10.561"/>
		<rect x="615.882" y="181.886" clip-path="url(#SVGID_2_)" fill="#E7216C" width="170.268" height="10.565"/>
		<rect x="615.882" y="176.809" clip-path="url(#SVGID_2_)" fill="#E7216D" width="170.268" height="10.556"/>
		<rect x="615.882" y="171.726" clip-path="url(#SVGID_2_)" fill="#E7206D" width="170.268" height="10.563"/>
		<rect x="615.882" y="166.654" clip-path="url(#SVGID_2_)" fill="#E71F6D" width="170.268" height="10.563"/>
		<rect x="615.882" y="161.575" clip-path="url(#SVGID_2_)" fill="#E71E6D" width="170.268" height="10.565"/>
		<rect x="615.882" y="156.499" clip-path="url(#SVGID_2_)" fill="#E71D6D" width="170.268" height="10.563"/>
		<rect x="615.882" y="151.425" clip-path="url(#SVGID_2_)" fill="#E71C6E" width="170.268" height="10.56"/>
		<rect x="615.882" y="146.348" clip-path="url(#SVGID_2_)" fill="#E61A6E" width="170.268" height="10.561"/>
		<rect x="615.882" y="141.269" clip-path="url(#SVGID_2_)" fill="#E6196E" width="170.268" height="10.563"/>
		<rect x="615.882" y="136.197" clip-path="url(#SVGID_2_)" fill="#E6186E" width="170.268" height="10.563"/>
		<rect x="615.882" y="131.12" clip-path="url(#SVGID_2_)" fill="#E6176E" width="170.268" height="10.561"/>
		<rect x="615.882" y="126.041" clip-path="url(#SVGID_2_)" fill="#E6156E" width="170.268" height="10.563"/>
		<rect x="615.882" y="120.967" clip-path="url(#SVGID_2_)" fill="#E6146F" width="170.268" height="10.565"/>
		<rect x="615.882" y="115.891" clip-path="url(#SVGID_2_)" fill="#E6126F" width="170.268" height="10.556"/>
		<rect x="615.882" y="110.814" clip-path="url(#SVGID_2_)" fill="#E6116F" width="170.268" height="10.561"/>
		<rect x="615.882" y="105.735" clip-path="url(#SVGID_2_)" fill="#E60F6F" width="170.268" height="10.561"/>
		<rect x="615.882" y="100.659" clip-path="url(#SVGID_2_)" fill="#E60D6F" width="170.268" height="10.561"/>
		<rect x="615.882" y="95.58" clip-path="url(#SVGID_2_)" fill="#E60B6F" width="170.268" height="10.563"/>
		<rect x="615.882" y="90.506" clip-path="url(#SVGID_2_)" fill="#E60970" width="170.268" height="10.563"/>
		<rect x="615.882" y="85.427" clip-path="url(#SVGID_2_)" fill="#E60770" width="170.268" height="10.563"/>
		<rect x="615.882" y="80.355" clip-path="url(#SVGID_2_)" fill="#E60470" width="170.268" height="10.563"/>
		<rect x="615.882" y="75.279" clip-path="url(#SVGID_2_)" fill="#E60270" width="170.268" height="10.563"/>
		<rect x="615.882" y="70.202" clip-path="url(#SVGID_2_)" fill="#E60070" width="170.268" height="10.561"/>
		<rect x="615.882" y="65.124" clip-path="url(#SVGID_2_)" fill="#E60070" width="170.268" height="10.563"/>
		<rect x="615.882" y="60.051" clip-path="url(#SVGID_2_)" fill="#E60070" width="170.268" height="10.563"/>
		<rect x="615.882" y="54.965" clip-path="url(#SVGID_2_)" fill="#E60071" width="170.268" height="10.563"/>
		<rect x="615.882" y="49.894" clip-path="url(#SVGID_2_)" fill="#E60071" width="170.268" height="10.563"/>
		<rect x="615.882" y="44.817" clip-path="url(#SVGID_2_)" fill="#E60071" width="170.268" height="10.563"/>
		<rect x="615.882" y="39.738" clip-path="url(#SVGID_2_)" fill="#E60071" width="170.268" height="10.563"/>
	</g>
	<g>
		<defs>
			<rect id="SVGID_3_" x="41.082" y="47.831" width="717.841" height="704.339"/>
		</defs>
		<clipPath id="SVGID_4_">
			<use xlink:href="#SVGID_3_"  overflow="visible"/>
		</clipPath>
		<path clip-path="url(#SVGID_4_)" d="M41.08,47.805h147.352c80.788,0,118.274,7.273,153.169,43.647
			c21.323,20.603,28.441,47.882,28.441,73.956c0,34.543-16.809,69.709-55.587,90.32c76.91,25.453,78.846,85.458,78.846,104.261
			c0,35.765-14.869,75.181-43.947,97.585c-43.931,34.566-75.604,38.809-156.401,38.809H41.08V47.805z M158.054,218.136h43.305
			c16.814,0,51.703,0,51.703-35.758c0-33.955-32.943-33.955-51.703-33.955h-43.305V218.136z M158.054,395.753h57.518
			c15.526,0,60.758,0,60.758-43.041c0-38.791-41.37-38.791-60.758-38.791h-57.518V395.753z"/>
	</g>
</g>
</svg>
